<svg xmlns="http://www.w3.org/2000/svg" xmlns:xlink="http://www.w3.org/1999/xlink" contentStyleType="text/css" data-diagram-type="SEQUENCE" height="1063px" preserveAspectRatio="none" style="width:1198px;height:1063px;background:#FFFFFF;" version="1.1" viewBox="0 0 1198 1063" width="1198px" zoomAndPan="magnify"><defs/><g><rect fill="none" height="719.9219" style="stroke:#000000;stroke-width:1.5;" width="1181.4165" x="10" y="156.5625"/><rect fill="none" height="570.2578" style="stroke:#000000;stroke-width:1.5;" width="1161.4165" x="20" y="299.2266"/><rect fill="none" height="507.9922" style="stroke:#000000;stroke-width:1.5;" width="1141.4165" x="30" y="354.4922"/><rect fill="none" height="447.7266" style="stroke:#000000;stroke-width:1.5;" width="1121.4165" x="40" y="407.7578"/><rect fill="none" height="314.1953" style="stroke:#000000;stroke-width:1.5;" width="419.0786" x="365.1538" y="505.1563"/><rect fill="none" height="283.0625" style="stroke:#000000;stroke-width:1.5;" width="399.0786" x="375.1538" y="529.2891"/><rect fill="none" height="207.7969" style="stroke:#000000;stroke-width:1.5;" width="379.0786" x="385.1538" y="597.5547"/><rect fill="none" height="132.5313" style="stroke:#000000;stroke-width:1.5;" width="359.0786" x="395.1538" y="665.8203"/><rect fill="none" height="59.2656" style="stroke:#000000;stroke-width:1.5;" width="339.0786" x="405.1538" y="689.9531"/><rect fill="none" height="46.2656" style="stroke:#000000;stroke-width:1.5;" width="488.231" x="40" y="890.4844"/><g><title>User</title><rect fill="#000000" fill-opacity="0.00000" height="901.5859" width="8" x="64.9551" y="81.2969"/><line style="stroke:#181818;stroke-width:0.5;stroke-dasharray:5,5;" x1="68" x2="68" y1="81.2969" y2="982.8828"/></g><g><title>Convertisseur</title><rect fill="#000000" fill-opacity="0.00000" height="901.5859" width="8" x="462.6924" y="81.2969"/><line style="stroke:#181818;stroke-width:0.5;stroke-dasharray:5,5;" x1="466.1538" x2="466.1538" y1="81.2969" y2="982.8828"/></g><g><title>Fichier de M.tadonn.es</title><rect fill="#000000" fill-opacity="0.00000" height="901.5859" width="8" x="814.3457" y="81.2969"/><line style="stroke:#181818;stroke-width:0.5;stroke-dasharray:5,5;" x1="817.52" x2="817.52" y1="81.2969" y2="982.8828"/></g><g><title>Fichier de Donn.es</title><rect fill="#000000" fill-opacity="0.00000" height="901.5859" width="8" x="981.5635" y="81.2969"/><line style="stroke:#181818;stroke-width:0.5;stroke-dasharray:5,5;" x1="985.1714" x2="985.1714" y1="81.2969" y2="982.8828"/></g><g><title>Fichier CSV</title><rect fill="#000000" fill-opacity="0.00000" height="901.5859" width="8" x="1104.686" y="81.2969"/><line style="stroke:#181818;stroke-width:0.5;stroke-dasharray:5,5;" x1="1107.9556" x2="1107.9556" y1="81.2969" y2="982.8828"/></g><g class="participant participant-head" data-participant="User"><text fill="#000000" font-family="sans-serif" font-size="14" lengthAdjust="spacing" textLength="31.9102" x="50" y="77.9951">User</text><ellipse cx="68.9551" cy="13.5" fill="#E2E2F0" rx="8" ry="8" style="stroke:#181818;stroke-width:0.5;"/><path d="M68.9551,21.5 L68.9551,48.5 M55.9551,29.5 L81.9551,29.5 M68.9551,48.5 L55.9551,63.5 M68.9551,48.5 L81.9551,63.5" fill="none" style="stroke:#181818;stroke-width:0.5;"/></g><g class="participant participant-tail" data-participant="User"><text fill="#000000" font-family="sans-serif" font-size="14" lengthAdjust="spacing" textLength="31.9102" x="50" y="994.8779">User</text><ellipse cx="68.9551" cy="1006.6797" fill="#E2E2F0" rx="8" ry="8" style="stroke:#181818;stroke-width:0.5;"/><path d="M68.9551,1014.6797 L68.9551,1041.6797 M55.9551,1022.6797 L81.9551,1022.6797 M68.9551,1041.6797 L55.9551,1056.6797 M68.9551,1041.6797 L81.9551,1056.6797" fill="none" style="stroke:#181818;stroke-width:0.5;"/></g><g class="participant participant-head" data-participant="Converter"><text fill="#000000" font-family="sans-serif" font-size="14" lengthAdjust="spacing" textLength="97.0771" x="415.1538" y="77.9951">Convertisseur</text><ellipse cx="466.6924" cy="49" fill="#E2E2F0" rx="12" ry="12" style="stroke:#181818;stroke-width:0.5;"/><line style="stroke:#181818;stroke-width:0.5;" x1="454.6924" x2="478.6924" y1="63" y2="63"/></g><g class="participant participant-tail" data-participant="Converter"><text fill="#000000" font-family="sans-serif" font-size="14" lengthAdjust="spacing" textLength="97.0771" x="415.1538" y="994.8779">Convertisseur</text><ellipse cx="466.6924" cy="1014.1797" fill="#E2E2F0" rx="12" ry="12" style="stroke:#181818;stroke-width:0.5;"/><line style="stroke:#181818;stroke-width:0.5;" x1="454.6924" x2="478.6924" y1="1028.1797" y2="1028.1797"/></g><g class="participant participant-head" data-participant="MetadataFile"><text fill="#000000" font-family="sans-serif" font-size="14" lengthAdjust="spacing" textLength="167.6514" x="731.52" y="77.9951">Fichier de M&#233;tadonn&#233;es</text><ellipse cx="818.3457" cy="49" fill="#E2E2F0" rx="12" ry="12" style="stroke:#181818;stroke-width:0.5;"/><line style="stroke:#181818;stroke-width:0.5;" x1="806.3457" x2="830.3457" y1="63" y2="63"/></g><g class="participant participant-tail" data-participant="MetadataFile"><text fill="#000000" font-family="sans-serif" font-size="14" lengthAdjust="spacing" textLength="167.6514" x="731.52" y="994.8779">Fichier de M&#233;tadonn&#233;es</text><ellipse cx="818.3457" cy="1014.1797" fill="#E2E2F0" rx="12" ry="12" style="stroke:#181818;stroke-width:0.5;"/><line style="stroke:#181818;stroke-width:0.5;" x1="806.3457" x2="830.3457" y1="1028.1797" y2="1028.1797"/></g><g class="participant participant-head" data-participant="DataFile"><text fill="#000000" font-family="sans-serif" font-size="14" lengthAdjust="spacing" textLength="134.7842" x="915.1714" y="77.9951">Fichier de Donn&#233;es</text><ellipse cx="985.5635" cy="49" fill="#E2E2F0" rx="12" ry="12" style="stroke:#181818;stroke-width:0.5;"/><line style="stroke:#181818;stroke-width:0.5;" x1="973.5635" x2="997.5635" y1="63" y2="63"/></g><g class="participant participant-tail" data-participant="DataFile"><text fill="#000000" font-family="sans-serif" font-size="14" lengthAdjust="spacing" textLength="134.7842" x="915.1714" y="994.8779">Fichier de Donn&#233;es</text><ellipse cx="985.5635" cy="1014.1797" fill="#E2E2F0" rx="12" ry="12" style="stroke:#181818;stroke-width:0.5;"/><line style="stroke:#181818;stroke-width:0.5;" x1="973.5635" x2="997.5635" y1="1028.1797" y2="1028.1797"/></g><g class="participant participant-head" data-participant="CSVFile"><text fill="#000000" font-family="sans-serif" font-size="14" lengthAdjust="spacing" textLength="79.4609" x="1065.9556" y="77.9951">Fichier CSV</text><ellipse cx="1108.686" cy="49" fill="#E2E2F0" rx="12" ry="12" style="stroke:#181818;stroke-width:0.5;"/><line style="stroke:#181818;stroke-width:0.5;" x1="1096.686" x2="1120.686" y1="63" y2="63"/></g><g class="participant participant-tail" data-participant="CSVFile"><text fill="#000000" font-family="sans-serif" font-size="14" lengthAdjust="spacing" textLength="79.4609" x="1065.9556" y="994.8779">Fichier CSV</text><ellipse cx="1108.686" cy="1014.1797" fill="#E2E2F0" rx="12" ry="12" style="stroke:#181818;stroke-width:0.5;"/><line style="stroke:#181818;stroke-width:0.5;" x1="1096.686" x2="1120.686" y1="1028.1797" y2="1028.1797"/></g><g class="message" data-participant-1="User" data-participant-2="Converter"><polygon fill="#181818" points="454.6924,108.4297,464.6924,112.4297,454.6924,116.4297,458.6924,112.4297" style="stroke:#181818;stroke-width:1;"/><line style="stroke:#181818;stroke-width:1;" x1="68.9551" x2="460.6924" y1="112.4297" y2="112.4297"/><text fill="#000000" font-family="sans-serif" font-size="13" lengthAdjust="spacing" textLength="134.7354" x="75.9551" y="107.3638">Lancer la conversion</text></g><g class="message" data-participant-1="Converter" data-participant-2="MetadataFile"><polygon fill="#181818" points="806.3457,137.5625,816.3457,141.5625,806.3457,145.5625,810.3457,141.5625" style="stroke:#181818;stroke-width:1;"/><line style="stroke:#181818;stroke-width:1;" x1="466.6924" x2="812.3457" y1="141.5625" y2="141.5625"/><text fill="#000000" font-family="sans-serif" font-size="13" lengthAdjust="spacing" textLength="198.2944" x="473.6924" y="136.4966">Lire le fichier de m&#233;tadonn&#233;es</text></g><path d="M10,156.5625 L74.4429,156.5625 L74.4429,163.6953 L64.4429,173.6953 L10,173.6953 L10,156.5625" fill="#EEEEEE" style="stroke:#000000;stroke-width:1.5;"/><rect fill="none" height="719.9219" style="stroke:#000000;stroke-width:1.5;" width="1181.4165" x="10" y="156.5625"/><text fill="#000000" font-family="sans-serif" font-size="13" font-weight="bold" lengthAdjust="spacing" textLength="19.4429" x="25" y="169.6294">alt</text><text fill="#000000" font-family="sans-serif" font-size="11" font-weight="bold" lengthAdjust="spacing" textLength="263.3555" x="89.4429" y="168.7729">[Si le fichier de m&#233;tadonn&#233;es est invalide]</text><g class="message" data-participant-1="Converter" data-participant-2="User"><polygon fill="#181818" points="79.9551,190.8281,69.9551,194.8281,79.9551,198.8281,75.9551,194.8281" style="stroke:#181818;stroke-width:1;"/><line style="stroke:#181818;stroke-width:1;" x1="73.9551" x2="465.6924" y1="194.8281" y2="194.8281"/><text fill="#000000" font-family="sans-serif" font-size="13" lengthAdjust="spacing" textLength="373.7373" x="85.9551" y="189.7622">Afficher erreur ("Le fichier de m&#233;tadonn&#233;es est invalide")</text></g><line style="stroke:#000000;stroke-width:1;stroke-dasharray:2,2;" x1="10" x2="1191.4165" y1="203.8281" y2="203.8281"/><g class="message" data-participant-1="MetadataFile" data-participant-2="Converter"><polygon fill="#181818" points="477.6924,221.9609,467.6924,225.9609,477.6924,229.9609,473.6924,225.9609" style="stroke:#181818;stroke-width:1;"/><line style="stroke:#181818;stroke-width:1;" x1="471.6924" x2="817.3457" y1="225.9609" y2="225.9609"/><text fill="#000000" font-family="sans-serif" font-size="13" lengthAdjust="spacing" textLength="327.6533" x="483.6924" y="220.895">Retourner les m&#233;tadonn&#233;es (nom, longueur, type)</text></g><g class="message" data-participant-1="Converter" data-participant-2="CSVFile"><polygon fill="#181818" points="1096.686,251.0938,1106.686,255.0938,1096.686,259.0938,1100.686,255.0938" style="stroke:#181818;stroke-width:1;"/><line style="stroke:#181818;stroke-width:1;" x1="466.6924" x2="1102.686" y1="255.0938" y2="255.0938"/><text fill="#000000" font-family="sans-serif" font-size="13" lengthAdjust="spacing" textLength="235.2061" x="473.6924" y="250.0278">&#201;crire l'en-t&#234;te (noms des colonnes)</text></g><g class="message" data-participant-1="CSVFile" data-participant-2="Converter"><polygon fill="#181818" points="477.6924,280.2266,467.6924,284.2266,477.6924,288.2266,473.6924,284.2266" style="stroke:#181818;stroke-width:1;"/><line style="stroke:#181818;stroke-width:1;" x1="471.6924" x2="1107.686" y1="284.2266" y2="284.2266"/><text fill="#000000" font-family="sans-serif" font-size="13" lengthAdjust="spacing" textLength="205.7275" x="483.6924" y="279.1606">Confirmer l'&#233;criture de l'en-t&#234;te</text></g><path d="M20,299.2266 L84.4429,299.2266 L84.4429,306.3594 L74.4429,316.3594 L20,316.3594 L20,299.2266" fill="#EEEEEE" style="stroke:#000000;stroke-width:1.5;"/><rect fill="none" height="570.2578" style="stroke:#000000;stroke-width:1.5;" width="1161.4165" x="20" y="299.2266"/><text fill="#000000" font-family="sans-serif" font-size="13" font-weight="bold" lengthAdjust="spacing" textLength="19.4429" x="35" y="312.2935">alt</text><text fill="#000000" font-family="sans-serif" font-size="11" font-weight="bold" lengthAdjust="spacing" textLength="208.957" x="99.4429" y="311.437">[Si le fichier de donn&#233;es est vide]</text><g class="message" data-participant-1="Converter" data-participant-2="User"><polygon fill="#181818" points="79.9551,333.4922,69.9551,337.4922,79.9551,341.4922,75.9551,337.4922" style="stroke:#181818;stroke-width:1;"/><line style="stroke:#181818;stroke-width:1;" x1="73.9551" x2="465.6924" y1="337.4922" y2="337.4922"/><text fill="#000000" font-family="sans-serif" font-size="13" lengthAdjust="spacing" textLength="316.583" x="85.9551" y="332.4263">Afficher erreur ("Le fichier de donn&#233;es est vide")</text></g><line style="stroke:#000000;stroke-width:1;stroke-dasharray:2,2;" x1="20" x2="1181.4165" y1="346.4922" y2="346.4922"/><path d="M30,354.4922 L106.624,354.4922 L106.624,361.625 L96.624,371.625 L30,371.625 L30,354.4922" fill="#EEEEEE" style="stroke:#000000;stroke-width:1.5;"/><rect fill="none" height="507.9922" style="stroke:#000000;stroke-width:1.5;" width="1141.4165" x="30" y="354.4922"/><text fill="#000000" font-family="sans-serif" font-size="13" font-weight="bold" lengthAdjust="spacing" textLength="31.624" x="45" y="367.5591">loop</text><text fill="#000000" font-family="sans-serif" font-size="11" font-weight="bold" lengthAdjust="spacing" textLength="289.749" x="121.624" y="366.7026">[Pour chaque ligne dans le fichier de donn&#233;es]</text><g class="message" data-participant-1="Converter" data-participant-2="DataFile"><polygon fill="#181818" points="973.5635,388.7578,983.5635,392.7578,973.5635,396.7578,977.5635,392.7578" style="stroke:#181818;stroke-width:1;"/><line style="stroke:#181818;stroke-width:1;" x1="466.6924" x2="979.5635" y1="392.7578" y2="392.7578"/><text fill="#000000" font-family="sans-serif" font-size="13" lengthAdjust="spacing" textLength="168.6191" x="473.6924" y="387.6919">Lire une ligne de donn&#233;es</text></g><path d="M40,407.7578 L104.4429,407.7578 L104.4429,414.8906 L94.4429,424.8906 L40,424.8906 L40,407.7578" fill="#EEEEEE" style="stroke:#000000;stroke-width:1.5;"/><rect fill="none" height="447.7266" style="stroke:#000000;stroke-width:1.5;" width="1121.4165" x="40" y="407.7578"/><text fill="#000000" font-family="sans-serif" font-size="13" font-weight="bold" lengthAdjust="spacing" textLength="19.4429" x="55" y="420.8247">alt</text><text fill="#000000" font-family="sans-serif" font-size="11" font-weight="bold" lengthAdjust="spacing" textLength="263.5435" x="119.4429" y="419.9683">[Si la ligne est trop courte ou trop longue]</text><g class="message" data-participant-1="Converter" data-participant-2="User"><polygon fill="#181818" points="79.9551,442.0234,69.9551,446.0234,79.9551,450.0234,75.9551,446.0234" style="stroke:#181818;stroke-width:1;"/><line style="stroke:#181818;stroke-width:1;" x1="73.9551" x2="465.6924" y1="446.0234" y2="446.0234"/><text fill="#000000" font-family="sans-serif" font-size="13" lengthAdjust="spacing" textLength="359.436" x="85.9551" y="440.9575">Afficher erreur ("La ligne ne respecte pas la structure")</text></g><line style="stroke:#000000;stroke-width:1;stroke-dasharray:2,2;" x1="40" x2="1161.4165" y1="455.0234" y2="455.0234"/><g class="message" data-participant-1="Converter" data-participant-2="Converter"><line style="stroke:#181818;stroke-width:1;" x1="466.6924" x2="508.6924" y1="477.1563" y2="477.1563"/><line style="stroke:#181818;stroke-width:1;" x1="508.6924" x2="508.6924" y1="477.1563" y2="490.1563"/><line style="stroke:#181818;stroke-width:1;" x1="467.6924" x2="508.6924" y1="490.1563" y2="490.1563"/><polygon fill="#181818" points="477.6924,486.1563,467.6924,490.1563,477.6924,494.1563,473.6924,490.1563" style="stroke:#181818;stroke-width:1;"/><text fill="#000000" font-family="sans-serif" font-size="13" lengthAdjust="spacing" textLength="269.0327" x="473.6924" y="472.0903">D&#233;couper la ligne selon les m&#233;tadonn&#233;es</text></g><path d="M365.1538,505.1563 L441.7778,505.1563 L441.7778,512.2891 L431.7778,522.2891 L365.1538,522.2891 L365.1538,505.1563" fill="#EEEEEE" style="stroke:#000000;stroke-width:1.5;"/><rect fill="none" height="314.1953" style="stroke:#000000;stroke-width:1.5;" width="419.0786" x="365.1538" y="505.1563"/><text fill="#000000" font-family="sans-serif" font-size="13" font-weight="bold" lengthAdjust="spacing" textLength="31.624" x="380.1538" y="518.2231">loop</text><text fill="#000000" font-family="sans-serif" font-size="11" font-weight="bold" lengthAdjust="spacing" textLength="140.0566" x="456.7778" y="517.3667">[Pour chaque colonne]</text><path d="M375.1538,529.2891 L439.5967,529.2891 L439.5967,536.4219 L429.5967,546.4219 L375.1538,546.4219 L375.1538,529.2891" fill="#EEEEEE" style="stroke:#000000;stroke-width:1.5;"/><rect fill="none" height="283.0625" style="stroke:#000000;stroke-width:1.5;" width="399.0786" x="375.1538" y="529.2891"/><text fill="#000000" font-family="sans-serif" font-size="13" font-weight="bold" lengthAdjust="spacing" textLength="19.4429" x="390.1538" y="542.356">alt</text><text fill="#000000" font-family="sans-serif" font-size="11" font-weight="bold" lengthAdjust="spacing" textLength="194.8257" x="454.5967" y="541.4995">[Si la colonne est de type date]</text><g class="message" data-participant-1="Converter" data-participant-2="Converter"><line style="stroke:#181818;stroke-width:1;" x1="466.6924" x2="508.6924" y1="567.5547" y2="567.5547"/><line style="stroke:#181818;stroke-width:1;" x1="508.6924" x2="508.6924" y1="567.5547" y2="580.5547"/><line style="stroke:#181818;stroke-width:1;" x1="467.6924" x2="508.6924" y1="580.5547" y2="580.5547"/><polygon fill="#181818" points="477.6924,576.5547,467.6924,580.5547,477.6924,584.5547,473.6924,580.5547" style="stroke:#181818;stroke-width:1;"/><text fill="#000000" font-family="sans-serif" font-size="13" lengthAdjust="spacing" textLength="128.229" x="473.6924" y="562.4888">Reformatter la date</text></g><line style="stroke:#000000;stroke-width:1;stroke-dasharray:2,2;" x1="375.1538" x2="774.2324" y1="589.5547" y2="589.5547"/><path d="M385.1538,597.5547 L449.5967,597.5547 L449.5967,604.6875 L439.5967,614.6875 L385.1538,614.6875 L385.1538,597.5547" fill="#EEEEEE" style="stroke:#000000;stroke-width:1.5;"/><rect fill="none" height="207.7969" style="stroke:#000000;stroke-width:1.5;" width="379.0786" x="385.1538" y="597.5547"/><text fill="#000000" font-family="sans-serif" font-size="13" font-weight="bold" lengthAdjust="spacing" textLength="19.4429" x="400.1538" y="610.6216">alt</text><text fill="#000000" font-family="sans-serif" font-size="11" font-weight="bold" lengthAdjust="spacing" textLength="233.7554" x="464.5967" y="609.7651">[Si la colonne est de type num&#233;rique]</text><g class="message" data-participant-1="Converter" data-participant-2="Converter"><line style="stroke:#181818;stroke-width:1;" x1="466.6924" x2="508.6924" y1="635.8203" y2="635.8203"/><line style="stroke:#181818;stroke-width:1;" x1="508.6924" x2="508.6924" y1="635.8203" y2="648.8203"/><line style="stroke:#181818;stroke-width:1;" x1="467.6924" x2="508.6924" y1="648.8203" y2="648.8203"/><polygon fill="#181818" points="477.6924,644.8203,467.6924,648.8203,477.6924,652.8203,473.6924,648.8203" style="stroke:#181818;stroke-width:1;"/><text fill="#000000" font-family="sans-serif" font-size="13" lengthAdjust="spacing" textLength="135.313" x="473.6924" y="630.7544">Convertir en nombre</text></g><line style="stroke:#000000;stroke-width:1;stroke-dasharray:2,2;" x1="385.1538" x2="764.2324" y1="657.8203" y2="657.8203"/><path d="M395.1538,665.8203 L459.5967,665.8203 L459.5967,672.9531 L449.5967,682.9531 L395.1538,682.9531 L395.1538,665.8203" fill="#EEEEEE" style="stroke:#000000;stroke-width:1.5;"/><rect fill="none" height="132.5313" style="stroke:#000000;stroke-width:1.5;" width="359.0786" x="395.1538" y="665.8203"/><text fill="#000000" font-family="sans-serif" font-size="13" font-weight="bold" lengthAdjust="spacing" textLength="19.4429" x="410.1538" y="678.8872">alt</text><text fill="#000000" font-family="sans-serif" font-size="11" font-weight="bold" lengthAdjust="spacing" textLength="207.6465" x="474.5967" y="678.0308">[Si la colonne est de type cha&#238;ne]</text><path d="M405.1538,689.9531 L469.5967,689.9531 L469.5967,697.0859 L459.5967,707.0859 L405.1538,707.0859 L405.1538,689.9531" fill="#EEEEEE" style="stroke:#000000;stroke-width:1.5;"/><rect fill="none" height="59.2656" style="stroke:#000000;stroke-width:1.5;" width="339.0786" x="405.1538" y="689.9531"/><text fill="#000000" font-family="sans-serif" font-size="13" font-weight="bold" lengthAdjust="spacing" textLength="19.4429" x="420.1538" y="703.02">alt</text><text fill="#000000" font-family="sans-serif" font-size="11" font-weight="bold" lengthAdjust="spacing" textLength="210.8369" x="484.5967" y="702.1636">[Si la cha&#238;ne contient une virgule]</text><g class="message" data-participant-1="Converter" data-participant-2="Converter"><line style="stroke:#181818;stroke-width:1;" x1="466.6924" x2="508.6924" y1="728.2188" y2="728.2188"/><line style="stroke:#181818;stroke-width:1;" x1="508.6924" x2="508.6924" y1="728.2188" y2="741.2188"/><line style="stroke:#181818;stroke-width:1;" x1="467.6924" x2="508.6924" y1="741.2188" y2="741.2188"/><polygon fill="#181818" points="477.6924,737.2188,467.6924,741.2188,477.6924,745.2188,473.6924,741.2188" style="stroke:#181818;stroke-width:1;"/><text fill="#000000" font-family="sans-serif" font-size="13" lengthAdjust="spacing" textLength="258.54" x="473.6924" y="723.1528">&#201;chapper la cha&#238;ne avec des guillemets</text></g><g class="message" data-participant-1="Converter" data-participant-2="Converter"><line style="stroke:#181818;stroke-width:1;" x1="466.6924" x2="508.6924" y1="777.3516" y2="777.3516"/><line style="stroke:#181818;stroke-width:1;" x1="508.6924" x2="508.6924" y1="777.3516" y2="790.3516"/><line style="stroke:#181818;stroke-width:1;" x1="467.6924" x2="508.6924" y1="790.3516" y2="790.3516"/><polygon fill="#181818" points="477.6924,786.3516,467.6924,790.3516,477.6924,794.3516,473.6924,790.3516" style="stroke:#181818;stroke-width:1;"/><text fill="#000000" font-family="sans-serif" font-size="13" lengthAdjust="spacing" textLength="188.4556" x="473.6924" y="772.2856">Supprimer les espaces de fin</text></g><g class="message" data-participant-1="Converter" data-participant-2="CSVFile"><polygon fill="#181818" points="1096.686,843.4844,1106.686,847.4844,1096.686,851.4844,1100.686,847.4844" style="stroke:#181818;stroke-width:1;"/><line style="stroke:#181818;stroke-width:1;" x1="466.6924" x2="1102.686" y1="847.4844" y2="847.4844"/><text fill="#000000" font-family="sans-serif" font-size="13" lengthAdjust="spacing" textLength="217.9214" x="473.6924" y="842.4185">&#201;crire la ligne trait&#233;e dans le CSV</text></g><path d="M40,890.4844 L104.4429,890.4844 L104.4429,897.6172 L94.4429,907.6172 L40,907.6172 L40,890.4844" fill="#EEEEEE" style="stroke:#000000;stroke-width:1.5;"/><rect fill="none" height="46.2656" style="stroke:#000000;stroke-width:1.5;" width="488.231" x="40" y="890.4844"/><text fill="#000000" font-family="sans-serif" font-size="13" font-weight="bold" lengthAdjust="spacing" textLength="19.4429" x="55" y="903.5513">alt</text><text fill="#000000" font-family="sans-serif" font-size="11" font-weight="bold" lengthAdjust="spacing" textLength="311.5771" x="119.4429" y="902.6948">[Si un fichier de donn&#233;es contient un type erron&#233;]</text><g class="message" data-participant-1="Converter" data-participant-2="User"><polygon fill="#181818" points="79.9551,924.75,69.9551,928.75,79.9551,932.75,75.9551,928.75" style="stroke:#181818;stroke-width:1;"/><line style="stroke:#181818;stroke-width:1;" x1="73.9551" x2="465.6924" y1="928.75" y2="928.75"/><text fill="#000000" font-family="sans-serif" font-size="13" lengthAdjust="spacing" textLength="294.8931" x="85.9551" y="923.6841">Afficher erreur ("Type de donn&#233;es incorrect")</text></g><g class="message" data-participant-1="User" data-participant-2="Converter"><polygon fill="#181818" points="454.6924,960.8828,464.6924,964.8828,454.6924,968.8828,458.6924,964.8828" style="stroke:#181818;stroke-width:1;"/><line style="stroke:#181818;stroke-width:1;" x1="68.9551" x2="460.6924" y1="964.8828" y2="964.8828"/><text fill="#000000" font-family="sans-serif" font-size="13" lengthAdjust="spacing" textLength="149.938" x="75.9551" y="959.8169">Terminer la conversion</text></g><!--SRC=[dLLBRkCm3Dtx54GsRO7s0baCC6ZGLGiKJQTxZS8a0cpAbIW3FS8S9REOI_XYG_cJsl4dGOG4SIJoyVdn8wNPElZbqIL8RFWB5e-M2dHilCVW5g0yD3iTcoUZzmOTR11UoWEhZIKg3-WhynUK3SNgoQGuvh7g6g-c31_N7tNmzKTrdaIIyF3ZcyqIdXLfsKmLw6hJ6ql9yJmQTxc8lN48ASBscqpMfP-eb65jvam0FOEXGgLcWmd8wiMB99VmSnlTPGUT4n7XTl5y8UBYBi7Kry1TxYSl_ePiWwFuxWBGXxibczr3QcaN9FOzy5UETqEcZQvBAFzeL-boW_J0vL_62i8BKI-w2X2XRm1gdnCoyhWrBejaRig3W74Gk4qNCQdSHzNjoL2qebufx01iKHC_QXfNQcqEhw8VwBtw3CBJx4Xy5Va9RaVN0QrLlxO27T4cl5iDL6CNYR8JGbe8YVGsr7_h_FLSBzUa1PUFGv-Z5k1SUacYUdP1nmGrohIhfz1ej4x6Lv9c6_AwzUfG7eNni1e7a0FncmeR6FR5QgmgkKJQMDEIC1vtcwF-XblhCiLSav_46DNZCbuKH09dFiCqm1p3TlvAGWca4N-xQPnPbkUPIWhAVpIFS89IUyHvoqP6TbNnXN6xa9w7cNjhcK9xbJSbrKPH1Ufg3Es2ILFCaFtP84YRv5eIwv3dpcJDM9NEKHhZ79IPGCcrGQVEnlR7zivCxRO1sId3qdB7EIQcoHHs-nn_uxUz-0ADJjDEjkl2aL5ZvUZo- - -zQjWEf25jvL1plF4YWv7h_HrTPkZqWlyF]--></g></svg>