<svg xmlns="http://www.w3.org/2000/svg" xmlns:xlink="http://www.w3.org/1999/xlink" contentStyleType="text/css" data-diagram-type="DESCRIPTION" height="548px" preserveAspectRatio="none" style="width:442px;height:548px;background:#FFFFFF;" version="1.1" viewBox="0 0 442 548" width="442px" zoomAndPan="magnify"><defs/><g><!--cluster Convertisseur de fichiers--><g class="cluster" data-entity="Convertisseur de fichiers" data-source-line="6" data-uid="ent0004" id="cluster_Convertisseur de fichiers"><rect fill="none" height="535" rx="2.5" ry="2.5" style="stroke:#181818;stroke-width:1;" width="314.21" x="122.01" y="7"/><text fill="#000000" font-family="sans-serif" font-size="14" font-weight="bold" lengthAdjust="spacing" textLength="197.8594" x="180.1853" y="21.9951">Convertisseur de fichiers</text></g><!--entity UC1--><g class="entity" data-entity="UC1" data-source-line="7" data-uid="ent0005" id="entity_UC1"><ellipse cx="279.114" cy="165.0028" fill="#F1F1F1" rx="117.564" ry="25.9128" style="stroke:#181818;stroke-width:0.5;"/><text fill="#000000" font-family="sans-serif" font-size="14" lengthAdjust="spacing" textLength="214.1494" x="172.0393" y="169.6512">Fournir fichier de donn&#233;es fixe</text></g><!--entity UC2--><g class="entity" data-entity="UC2" data-source-line="8" data-uid="ent0006" id="entity_UC2"><ellipse cx="279.114" cy="73.0008" fill="#F1F1F1" rx="141.104" ry="30.6208" style="stroke:#181818;stroke-width:0.5;"/><text fill="#000000" font-family="sans-serif" font-size="14" lengthAdjust="spacing" textLength="263.915" x="147.1565" y="77.6492">Fournir fichier de m&#233;tadonn&#233;es (CSV)</text></g><!--entity UC2a--><g class="entity" data-entity="UC2a" data-source-line="9" data-uid="ent0007" id="entity_UC2a"><ellipse cx="279.1121" cy="501.0004" fill="#F1F1F1" rx="114.9521" ry="25.3904" style="stroke:#181818;stroke-width:0.5;"/><text fill="#000000" font-family="sans-serif" font-size="14" lengthAdjust="spacing" textLength="208.5508" x="174.8368" y="505.6489">V&#233;rifier la validit&#233; des fichiers</text></g><!--entity UC3--><g class="entity" data-entity="UC3" data-source-line="10" data-uid="ent0008" id="entity_UC3"><ellipse cx="279.1078" cy="420.0016" fill="#F1F1F1" rx="89.8578" ry="20.3716" style="stroke:#181818;stroke-width:0.5;"/><text fill="#000000" font-family="sans-serif" font-size="14" lengthAdjust="spacing" textLength="153.4189" x="202.3983" y="424.65">Convertir les donn&#233;es</text></g><!--entity UC4--><g class="entity" data-entity="UC4" data-source-line="11" data-uid="ent0009" id="entity_UC4"><ellipse cx="279.1079" cy="337.9976" fill="#F1F1F1" rx="120.6879" ry="26.5376" style="stroke:#181818;stroke-width:0.5;"/><text fill="#000000" font-family="sans-serif" font-size="14" lengthAdjust="spacing" textLength="220.8213" x="168.6972" y="342.646">G&#233;n&#233;rer le fichier CSV de sortie</text></g><!--entity UC5--><g class="entity" data-entity="UC5" data-source-line="12" data-uid="ent0010" id="entity_UC5"><ellipse cx="279.1079" cy="250.9956" fill="#F1F1F1" rx="115.3279" ry="25.4656" style="stroke:#181818;stroke-width:0.5;"/><text fill="#000000" font-family="sans-serif" font-size="14" lengthAdjust="spacing" textLength="209.3574" x="174.4292" y="255.644">Signaler une erreur de format</text></g><!--entity User--><g class="entity" data-entity="User" data-source-line="3" data-uid="ent0002" id="entity_User"><ellipse cx="42.0049" cy="89.35" fill="#F1F1F1" rx="8" ry="8" style="stroke:#181818;stroke-width:0.5;"/><path d="M42.0049,97.35 L42.0049,124.35 M29.0049,105.35 L55.0049,105.35 M42.0049,124.35 L29.0049,139.35 M42.0049,124.35 L55.0049,139.35" fill="none" style="stroke:#181818;stroke-width:0.5;"/><text fill="#000000" font-family="sans-serif" font-size="14" lengthAdjust="spacing" textLength="72.0098" x="6" y="153.8451">Utilisateur</text></g><!--entity System--><g class="entity" data-entity="System" data-source-line="4" data-uid="ent0003" id="entity_System"><ellipse cx="42.0097" cy="349.35" fill="#F1F1F1" rx="8" ry="8" style="stroke:#181818;stroke-width:0.5;"/><path d="M42.0097,357.35 L42.0097,384.35 M29.0097,365.35 L55.0097,365.35 M42.0097,384.35 L29.0097,399.35 M42.0097,384.35 L55.0097,399.35" fill="none" style="stroke:#181818;stroke-width:0.5;"/><text fill="#000000" font-family="sans-serif" font-size="14" lengthAdjust="spacing" textLength="60.8193" x="11.6" y="413.8451">Syst&#232;me</text></g><!--link User to UC1--><g class="link" data-entity-1="User" data-entity-2="UC1" data-source-line="14" data-uid="lnk11" id="link_User_UC1"><path d="M78.46,125.94 C107.96,131.71 145.3617,139.0276 184.0917,146.6076" fill="none" id="User-to-UC1" style="stroke:#181818;stroke-width:1;"/><polygon fill="#181818" points="189.98,147.76,181.9158,142.1058,185.0731,146.7997,180.3793,149.9569,189.98,147.76" style="stroke:#181818;stroke-width:1;"/></g><!--link User to UC2--><g class="link" data-entity-1="User" data-entity-2="UC2" data-source-line="15" data-uid="lnk12" id="link_User_UC2"><path d="M78.46,112.06 C103.73,107.12 133.2218,101.3527 167.1918,94.7027" fill="none" id="User-to-UC2" style="stroke:#181818;stroke-width:1;"/><polygon fill="#181818" points="173.08,93.55,163.4792,91.3535,168.1731,94.5106,165.0161,99.2045,173.08,93.55" style="stroke:#181818;stroke-width:1;"/></g><!--link System to UC2a--><g class="link" data-entity-1="System" data-entity-2="UC2a" data-source-line="17" data-uid="lnk13" id="link_System_UC2a"><path d="M69.71,417.29 C81.71,431.95 97,447.63 114.01,458 C135.26,470.95 154.5586,478.509 178.6586,484.869" fill="none" id="System-to-UC2a" style="stroke:#181818;stroke-width:1;"/><polygon fill="#181818" points="184.46,486.4,176.7786,480.2359,179.6255,485.1242,174.7373,487.9711,184.46,486.4" style="stroke:#181818;stroke-width:1;"/></g><!--link System to UC3--><g class="link" data-entity-1="System" data-entity-2="UC3" data-source-line="18" data-uid="lnk14" id="link_System_UC3"><path d="M72.78,384.19 C106.27,390.03 155.9192,398.689 200.8092,406.519" fill="none" id="System-to-UC3" style="stroke:#181818;stroke-width:1;"/><polygon fill="#181818" points="206.72,407.55,198.5412,402.063,201.7944,406.6908,197.1665,409.944,206.72,407.55" style="stroke:#181818;stroke-width:1;"/></g><!--link System to UC4--><g class="link" data-entity-1="System" data-entity-2="UC4" data-source-line="19" data-uid="lnk15" id="link_System_UC4"><path d="M72.78,373.81 C100.65,368.95 137.8792,362.4507 177.4492,355.5507" fill="none" id="System-to-UC4" style="stroke:#181818;stroke-width:1;"/><polygon fill="#181818" points="183.36,354.52,173.8067,352.1255,178.4343,355.3789,175.1809,360.0066,183.36,354.52" style="stroke:#181818;stroke-width:1;"/></g><!--link System to UC5--><g class="link" data-entity-1="System" data-entity-2="UC5" data-source-line="20" data-uid="lnk16" id="link_System_UC5"><path d="M67.23,340.4 C79.4,323.89 95.5,305.75 114.01,294 C134.65,280.9 153.3544,273.3228 177.0544,266.9728" fill="none" id="System-to-UC5" style="stroke:#181818;stroke-width:1;"/><polygon fill="#181818" points="182.85,265.42,173.1214,263.8855,178.0204,266.714,175.1918,271.613,182.85,265.42" style="stroke:#181818;stroke-width:1;"/></g><!--SRC=[XP4xQiGm48PxdM9mbHHRP1zj6aDo0EFjXJts3iWIZEGb8UG-yJbqiOnYQn5k0chcd_-RbmmE0O83fl4Me2V6Bf2pIkakE8Qg3MJ8wu0pLw0zj1uvvvfF7-BFX7-95E2aL2gWxMWGgjhPEt8WxuM67c6WxaR8le8l1J1xxBGNtvkRsHBdT7Bspjgue1VjOwtVrY__C5DSWdw0JtLpVTx8OqbUuy8q9CPek6j3FOMuI05VpBTYkkJoDiA9DVVPhAVI-HuNoN7gyDWPP9mqf7TI8czqBgc6HgkDE6UBWCpvPeud7JRW8e2yz0bmEBnkHod2ev9u_OgiwBrosWldlN1Htxy0]--></g></svg>